# AST/ASF file generated using VICON BodyLanguage
# -----------------------------------------------
:version 1.10
:name VICON
:units
  mass 1.0
  length 0.45
  angle deg
:documentation
   .ast/.asf automatically generated from VICON data using
   VICON BodyBuilder and BodyLanguage model FoxedUp or BRILLIANT.MOD
:root
   order TX TY TZ RX RY RZ
   axis XYZ
   position 0 0 0  
   orientation 0 0 0 
:bonedata
  begin
     id 1 
     name lhipjoint
     direction 0.578396 -0.714046 0.394458 
     length 2.21935 
     axis 0 0 0  XYZ
  end
  begin
     id 2 
     name lfemur
     direction 0.34202 -0.939693 0  
     length 6.39105  
     axis 0 0 20  XYZ
    dof rx ry rz
    limits (-160.0 20.0)
           (-70.0 70.0)
           (-60.0 70.0)
  end
  begin
     id 3 
     name ltibia
     direction 0.34202 -0.939693 0   
     length 6.99037   
     axis 0 0 20   XYZ
    dof rx
    limits (-10.0 170.0)
  end
  begin
     id 4 
     name lfoot
     direction 0.0582372 -0.160005 0.985397   
     length 2.06111   
     axis -90 7.62852e-016 20   XYZ
    dof rx rz
    limits (-45.0 90.0)
           (-70.0 20.0)
  end
  begin
     id 5 
     name ltoes
     direction 1.53556e-011 -4.21875e-011 1   
     length 1.04074   
     axis -90 7.62852e-016 20   XYZ
    dof rx
    limits (-90.0 20.0)
  end
  begin
     id 6 
     name rhipjoint
     direction -0.558179 -0.726269 0.40121   
     length 2.182  
     axis 0 0 0  XYZ 
  end
  begin
     id 7 
     name rfemur
     direction -0.34202 -0.939693 0   
     length 6.51172   
     axis 0 0 -20   XYZ
    dof rx ry rz
    limits (-160.0 20.0)
           (-70.0 70.0)
           (-70.0 60.0)
  end
  begin
     id 8 
     name rtibia
     direction -0.34202 -0.939693 0   
     length 7.02607   
     axis 0 0 -20   XYZ
    dof rx
    limits (-10.0 170.0)
 end
 begin
     id 9 
     name rfoot
     direction -0.0788856 -0.216737 0.973038   
     length 1.96734  
     axis -90 -7.62852e-016 -20   XYZ
    dof rx rz
    limits (-45.0 90.0)
           (-20.0 70.0)
  end
  begin
     id 10 
     name rtoes
     direction -1.53567e-011 -4.21783e-011 1   
     length 0.990825   
     axis -90 -7.62852e-016 -20   XYZ
    dof rx
    limits (-90.0 20.0)
  end
  begin
     id 11 
     name lowerback
     direction 0.00668177 0.999323 -0.0361741   
     length 1.7655   
     axis 0 0 0   XYZ
    dof rx ry rz
    limits (-20.0 45.0)
           (-30.0 30.0)
           (-30.0 30.0)
  end
  begin
     id 12 
     name upperback
     direction -0.00222086 0.99851 0.0545167   
     length 1.74912   
     axis 0 0 0   XYZ
    dof rx ry rz
    limits (-20.0 45.0)
           (-30.0 30.0)
           (-30.0 30.0)
  end
  begin
     id 13 
     name thorax
     direction -0.00733971 0.997496 0.0703443   
     length 1.75715   
     axis 0 0 0   XYZ
    dof rx ry rz
    limits (-20.0 45.0)
           (-30.0 30.0)
           (-30.0 30.0)
  end
  begin
     id 14 
     name lowerneck
     direction 0.0279797 0.994795 0.0979765   
     length 1.46939   
     axis 0 0 0   XYZ
    dof rx ry rz
    limits (-20.0 45.0)
           (-30.0 30.0)
           (-30.0 30.0)
  end
  begin
     id 15 
     name upperneck
     direction 0.00339187 0.976776 -0.214238   
     length 1.48018   
     axis 0 0 0   XYZ
    dof rx ry rz
    limits (-20.0 45.0)
           (-30.0 30.0)
           (-30.0 30.0)
  end
  begin
     id 16
     name head
     direction -0.00263506 0.996603 -0.0823096  
     length 1.4976  
     axis 0 0 0   XYZ
    dof rx ry rz
    limits (-20.0 45.0)
           (-30.0 30.0)
           (-30.0 30.0)
  end
  begin
     id 17 
     name lclavicle
     direction 0.894044 0.44508 -0.0508781  
     length 3.03024  
     axis 0 0 0   XYZ
    dof ry rz
    limits (-20.0 10.0)
           (0.0 20.0)
  end
  begin
     id 18 
     name lhumerus
     direction 1 -4.48961e-011 -2.39475e-018   
     length 4.4661   
     axis 180 -30 -90   XYZ
    dof rx ry rz
    limits (-60.0 90.0)
           (-90.0 90.0)
           (-90.0 90.0)
  end
  begin
     id 19
     name lradius
     direction 1 -4.48961e-011 9.29328e-028   
     length 3.41414   
     axis 180 -30 -90   XYZ
    dof rx
    limits (-10.0 170.0)
  end
  begin
     id 20
     name lwrist
     direction 1 -4.48985e-011 1.53461e-026   
     length 1.70707   
     axis -1.09697e-014 90 90   XYZ
    dof ry
    limits (-180.0 0.0)
 end
  begin
     id 21 
     name lhand
     direction 1 -4.48966e-011 3.06923e-026   
     length 0.328298   
     axis -1.95843e-014 90 90   XYZ
    dof rx rz
    limits (-90.0 90.0)
           (-45.0 45.0)
  end
  begin
     id 22 
     name lfingers
     direction 1 -4.48893e-011 6.13845e-026   
     length 0.264682   
     axis -3.91686e-014 90 90   XYZ
    dof rx
    limits (0.0 90.0)
  end
  begin
     id 23
     name lthumb
     direction 0.707107 -6.34876e-011 0.707107   
     length 0.380032   
     axis -90 45 2.85299e-015   XYZ
    dof rx rz
    limits (-45.0 45.0)
           (-45.0 45.0)
  end
  begin
     id 24 
     name rclavicle
     direction -0.936955 0.347862 -0.0332887   
     length 3.26927  
     axis 0 0 0   XYZ 
    dof ry rz
    limits (-10.0 20.0)
           (-20.0 0.0)
  end
  begin
     id 25 
     name rhumerus
     direction -1 -4.4896e-011 1.78637e-018  
     length 4.40431   
     axis 180 30 90   XYZ
    dof rx ry rz
    limits (-90.0 60.0)
           (-90.0 90.0)
           (-90.0 90.0)
  end
  begin
     id 26 
     name rradius
     direction -1 -4.48955e-011 9.34036e-027   
     length 3.04688   
     axis 180 30 90   XYZ
    dof rx
    limits (-10.0 170.0)
  end
  begin
     id 27 
     name rwrist
     direction -1 -4.49011e-011 1.53461e-026   
     length 1.52344   
     axis -1.09697e-014 -90 -90   XYZ
    dof ry
    limits (-180.0 0.0)
  end
  begin
     id 28
     name rhand
     direction -1 -4.48834e-011 3.06923e-026   
     length 0.500489   
     axis -1.95843e-014 -90 -90   XYZ
    dof rx rz
    limits (-90.0 90.0)
           (-45.0 45.0)
  end
  begin
     id 29
     name rfingers
     direction -1 -4.48967e-011 6.13845e-026   
     length 0.403507   
     axis -3.91686e-014 -90 -90   XYZ
    dof rx
    limits (0.0 90.0)
  end
  begin
     id 30
     name rthumb
     direction -0.707107 -6.34826e-011 0.707107   
     length 0.579358   
     axis -90 -45 -2.85299e-015   XYZ
    dof rx rz
    limits (-45.0 45.0)
           (-45.0 45.0)
  end
:hierarchy
  begin
    root lhipjoint rhipjoint lowerback
    lhipjoint lfemur
    lfemur ltibia
    ltibia lfoot
    lfoot ltoes
    rhipjoint rfemur
    rfemur rtibia
    rtibia rfoot
    rfoot rtoes
    lowerback upperback
    upperback thorax
    thorax lowerneck lclavicle rclavicle
    lowerneck upperneck
    upperneck head
    lclavicle lhumerus
    lhumerus lradius
    lradius lwrist
    lwrist lhand lthumb
    lhand lfingers
    rclavicle rhumerus
    rhumerus rradius
    rradius rwrist
    rwrist rhand rthumb
    rhand rfingers
  end

#!OML:ASF H:\IndianDance\Patient Classification 1\Patient 1\Session 1\dancer.ASF
:FULLY-SPECIFIED
:DEGREES
117
root 2.00445 13.1239 2.6076 -177.042 0.751569 -177.532
lowerback 6.83676 2.1144 -0.156403
upperback -5.06769 3.0104 0.519957
thorax -9.24557 1.55139 0.186135
lowerneck -20.3987 2.11019 2.05024
upperneck 32.7432 -1.40492 4.83723
head 14.8453 -0.351756 1.20019
rclavicle -1.78533e-014 -5.96354e-016
rhumerus -11.2143 36.0115 -8.87358
rradius 38.4771
rwrist -11.7623
rhand -5.78235 15.2122
rfingers 7.12502
rthumb 20.0416 -13.7741
lclavicle -1.78533e-014 -5.96354e-016
lhumerus -0.445805 -37.4248 0.0291577
lradius 37.6373
lwrist 15.0567
lhand -4.94976 0.345885
lfingers 7.12502
lthumb 20.8417 29.2464
rfemur -42.301 -43.9957 19.577
rtibia 80.0806
rfoot -30.5993 -9.93096
rtoes 7.57933
lfemur -38.5742 43.7479 -10.1485
ltibia 77.75
lfoot -30.6839 5.64575
ltoes -2.09852
118
root 1.99849 13.1272 2.6064 -177.035 0.754289 -177.522
lowerback 6.84073 2.11439 -0.157807
upperback -5.08097 3.01057 0.512096
thorax -9.26209 1.55154 0.178007
lowerneck -20.3543 2.17181 2.11329
upperneck 32.5471 -1.31851 4.91086
head 14.7448 -0.289038 1.23441
rclavicle -1.54182e-014 2.18663e-015
rhumerus -11.2336 35.9919 -8.90591
rradius 38.4512
rwrist -11.7615
rhand -5.75847 15.1713
rfingers 7.12502
rthumb 20.0645 -13.8126
lclavicle -1.54182e-014 2.18663e-015
lhumerus -0.431934 -37.382 -0.00691337
lradius 37.5986
lwrist 15.0407
lhand -4.95959 0.35442
lfingers 7.12502
lthumb 20.8322 29.256
rfemur -42.2719 -43.9819 19.5566
rtibia 80.0266
rfoot -30.5644 -9.92008
rtoes 7.55166
lfemur -38.558 43.7345 -10.1723
ltibia 77.7193
lfoot -30.697 5.6676
ltoes -2.10999
119
root 1.99261 13.1303 2.6051 -177.024 0.754623 -177.51
lowerback 6.84249 2.11284 -0.156841
upperback -5.09404 3.00893 0.504261
thorax -9.27694 1.55068 0.168947
lowerneck -20.3055 2.23437 2.17051
upperneck 32.334 -1.23041 4.99814
head 14.6362 -0.224119 1.27501
rclavicle 2.25993e-014 1.27222e-014
rhumerus -11.2502 35.9656 -8.93594
rradius 38.4243
rwrist -11.758
rhand -5.73332 15.1325
rfingers 7.12502
rthumb 20.0887 -13.849
lclavicle 2.25993e-014 1.27222e-014
lhumerus -0.421143 -37.3333 -0.044334
lradius 37.5621
lwrist 15.0372
lhand -4.97959 0.366054
lfingers 7.12502
lthumb 20.813 29.2698
rfemur -42.2487 -43.9704 19.5423
rtibia 79.9749
rfoot -30.5305 -9.91022
rtoes 7.53089
lfemur -38.55 43.7182 -10.1973
ltibia 77.6931
lfoot -30.7088 5.69136
ltoes -2.10914
120
root 1.98685 13.1331 2.60371 -177.012 0.752909 -177.494
lowerback 6.84367 2.11104 -0.150563
upperback -5.10676 3.00757 0.496752
thorax -9.29079 1.54964 0.157256
lowerneck -20.2578 2.29455 2.22017
upperneck 32.109 -1.14541 5.09755
head 14.5234 -0.15953 1.32079
rclavicle 2.65253e-014 5.76476e-015
rhumerus -11.2667 35.9395 -8.96164
rradius 38.3961
rwrist -11.7491
rhand -5.70972 15.0983
rfingers 7.12502
rthumb 20.1114 -13.8808
lclavicle 2.65253e-014 5.76476e-015
lhumerus -0.407713 -37.2867 -0.0864096
lradius 37.5296
lwrist 15.0522
lhand -5.00781 0.385659
lfingers 7.12502
lthumb 20.7859 29.2923
rfemur -42.2305 -43.9598 19.5361
rtibia 79.9258
rfoot -30.4985 -9.90153
rtoes 7.51547
lfemur -38.5497 43.7015 -10.2197
ltibia 77.672
lfoot -30.7187 5.71564
ltoes -2.11952
121
root 1.9812 13.1356 2.60225 -176.996 0.74936 -177.475
lowerback 6.84381 2.10903 -0.142093
upperback -5.11898 3.00618 0.489536
thorax -9.30339 1.54845 0.144715
lowerneck -20.2138 2.35135 2.26144
upperneck 31.8758 -1.06441 5.20642
head 14.4086 -0.0961975 1.37065
rclavicle 2.10339e-014 9.34288e-015
rhumerus -11.2833 35.917 -8.98189
rradius 38.3675
rwrist -11.731
rhand -5.68918 15.0711
rfingers 7.12502
rthumb 20.1311 -13.9059
lclavicle 2.10339e-014 9.34288e-015
lhumerus -0.393167 -37.2434 -0.133007
lradius 37.5015
lwrist 15.0809
lhand -5.04142 0.403561
lfingers 7.12502
lthumb 20.7536 29.3138
rfemur -42.2184 -43.9497 19.5361
rtibia 79.8797
rfoot -30.4678 -9.89607
rtoes 7.50393
lfemur -38.5571 43.6841 -10.2418
ltibia 77.6554
lfoot -30.7278 5.73577
ltoes -2.11983
122
root 1.97568 13.138 2.60066 -176.979 0.745123 -177.456
lowerback 6.8429 2.10779 -0.133002
upperback -5.13071 3.00584 0.48207
thorax -9.31479 1.54771 0.131463
lowerneck -20.1726 2.40286 2.29317
upperneck 31.6361 -0.989565 5.3228
head 14.2923 -0.0356162 1.42354
rclavicle -4.54223e-014 -8.54774e-015
rhumerus -11.3022 35.9007 -8.99666
rradius 38.3375
rwrist -11.7032
rhand -5.67778 15.0521
rfingers 7.12502
rthumb 20.1421 -13.9237
lclavicle -4.54223e-014 -8.54774e-015
lhumerus -0.37562 -37.2017 -0.183124
lradius 37.475
lwrist 15.1143
lhand -5.07349 0.415382
lfingers 7.12502
lthumb 20.7228 29.3289
rfemur -42.2098 -43.9397 19.5387
rtibia 79.8362
rfoot -30.438 -9.89142
rtoes 7.49963
lfemur -38.5689 43.667 -10.264
ltibia 77.642
lfoot -30.7364 5.75201
ltoes -2.10883
123
root 1.97028 13.1402 2.599 -176.961 0.741227 -177.438
lowerback 6.84219 2.10823 -0.125042
upperback -5.14198 3.00755 0.474225
thorax -9.32588 1.54802 0.11814
lowerneck -20.1365 2.44879 2.31679
upperneck 31.3957 -0.92206 5.44401
head 14.1778 0.021363 1.478
rclavicle -5.59082e-016 -1.0138e-014
rhumerus -11.3243 35.893 -9.00503
rradius 38.3064
rwrist -11.6727
rhand -5.66943 15.0377
rfingers 7.12502
rthumb 20.1501 -13.9373
lclavicle -5.59082e-016 -1.0138e-014
lhumerus -0.352097 -37.1641 -0.237567
lradius 37.4504
lwrist 15.1475
lhand -5.10636 0.423718
lfingers 7.12502
lthumb 20.6912 29.3407
rfemur -42.2036 -43.9279 19.5415
rtibia 79.7955
rfoot -30.4091 -9.88646
rtoes 7.50487
lfemur -38.5828 43.6516 -10.286
ltibia 77.6314
lfoot -30.7437 5.76563
ltoes -2.10165
124
root 1.96499 13.1422 2.59724 -176.943 0.738525 -177.422
lowerback 6.84151 2.11159 -0.118393
upperback -5.15319 3.01285 0.46428
thorax -9.33689 1.55006 0.102792
lowerneck -20.1051 2.48792 2.33583
upperneck 31.157 -0.864456 5.56687
head 14.066 0.0734608 1.53169
rclavicle 4.57205e-015 -6.75868e-015
rhumerus -11.3548 35.8903 -9.01162
rradius 38.2731
rwrist -11.6398
rhand -5.66264 15.0206
rfingers 7.12502
rthumb 20.1566 -13.9537
lclavicle 4.57205e-015 -6.75868e-015
lhumerus -0.316406 -37.131 -0.299661
lradius 37.4268
lwrist 15.177
lhand -5.13277 0.428013
lfingers 7.12502
lthumb 20.6658 29.3478
rfemur -42.1988 -43.9127 19.5426
rtibia 79.7571
rfoot -30.3806 -9.88228
rtoes 7.51505
lfemur -38.5969 43.6371 -10.3091
ltibia 77.622
lfoot -30.7503 5.77602
ltoes -2.09256
125
root 1.95982 13.1441 2.5954 -176.926 0.73764 -177.406
lowerback 6.8419 2.11717 -0.112259
upperback -5.16469 3.02093 0.4526
thorax -9.3488 1.55339 0.0854229
lowerneck -20.0758 2.52139 2.34896
upperneck 30.9223 -0.815909 5.69341
head 13.9573 0.12092 1.58583
rclavicle 6.80962e-014 1.17283e-014
rhumerus -11.3902 35.8917 -9.01692
rradius 38.2376
rwrist -11.6098
rhand -5.65008 15.0041
rfingers 7.12502
rthumb 20.1687 -13.969
lclavicle 6.80962e-014 1.17283e-014
lhumerus -0.273009 -37.0998 -0.366311
lradius 37.4028
lwrist 15.1978
lhand -5.15249 0.425204
lfingers 7.12502
lthumb 20.6469 29.347
rfemur -42.1933 -43.8949 19.5418
rtibia 79.7206
rfoot -30.3539 -9.8769
rtoes 7.53519
lfemur -38.6091 43.6257 -10.3308
ltibia 77.614
lfoot -30.7566 5.78612
ltoes -2.0892
126
root 1.95483 13.1459 2.59347 -176.91 0.739013 -177.392
lowerback 6.84384 2.12538 -0.107561
upperback -5.17624 3.03227 0.439874
thorax -9.36174 1.55835 0.0671916
lowerneck -20.0481 2.54983 2.36015
upperneck 30.6924 -0.775503 5.81941
head 13.8519 0.164 1.63824
rclavicle 3.9496e-014 1.63003e-014
rhumerus -11.4323 35.8958 -9.02158
rradius 38.2016
rwrist -11.5871
rhand -5.63064 14.9844
rfingers 7.12502
rthumb 20.1874 -13.9867
lclavicle 3.9496e-014 1.63003e-014
lhumerus -0.221165 -37.0698 -0.436468
lradius 37.3782
lwrist 15.2102
lhand -5.15955 0.416554
lfingers 7.12502
lthumb 20.6401 29.3391
rfemur -42.1843 -43.8736 19.5383
rtibia 79.6858
rfoot -30.3279 -9.87252
rtoes 7.55403
lfemur -38.617 43.6198 -10.3486
ltibia 77.6071
lfoot -30.7622 5.7918
ltoes -2.08985
